<svg width="100" height="100" viewBox="0 0 100 100" fill="none" xmlns="http://www.w3.org/2000/svg">
<circle cx="50" cy="50" r="50" fill="black"/>
<path d="M27.1875 73H17.75V27.9062H47.2812V35.6875H27.1875V47.7812H45.5312V55.25H27.1875V73Z" fill="white"/>
<path d="M72.8438 73H52.875V27.9062H72.5C80.9688 27.9062 86.2812 32.25 86.2812 39.1562C86.2812 44.0938 82.5938 48.2188 77.8125 48.9375V49.1875C83.9375 49.6562 88.4375 54.125 88.4375 60.0938C88.4375 68.0312 82.4688 73 72.8438 73ZM62.3125 34.9375V46.6562H69.0938C74.125 46.6562 77 44.4375 77 40.625C77 37 74.4688 34.9375 70.0625 34.9375H62.3125ZM62.3125 65.9688H70.4375C75.875 65.9688 78.8125 63.6562 78.8125 59.3438C78.8125 55.125 75.7812 52.875 70.2188 52.875H62.3125V65.9688Z" fill="#20BC7A"/>
</svg>
